Coordinates
version=1
nRows=16
nColumns=40
inDegrees=yes

Units are S.I. units (second, meters, Newtons, ...)
Angles are in degrees.

endheader
time	pelvis_tilt	pelvis_list	pelvis_rotation	pelvis_tx	pelvis_ty	pelvis_tz	hip_flexion_r	hip_adduction_r	hip_rotation_r	knee_angle_r	knee_angle_r_beta	ankle_angle_r	subtalar_angle_r	mtp_angle_r	hip_flexion_l	hip_adduction_l	hip_rotation_l	knee_angle_l	knee_angle_l_beta	ankle_angle_l	subtalar_angle_l	mtp_angle_l	lumbar_extension	lumbar_bending	lumbar_rotation	arm_flex_r	arm_add_r	arm_rot_r	elbow_flex_r	pro_sup_r	wrist_flex_r	wrist_dev_r	arm_flex_l	arm_add_l	arm_rot_l	elbow_flex_l	pro_sup_l	wrist_flex_l	wrist_dev_l
      0.00000000	     -4.37608121	     -2.84200575	     -4.19216247	     -1.02864860	      0.88595348	      1.39528214	     31.58501807	     -1.70581183	    -11.27770498	    -50.67771543	     -0.88449299	      2.17824936	    -13.68074647	      0.95139210	     -0.94348027	     -0.01541747	      2.54729423	    -16.58805350	     -0.28951615	     17.21403710	      1.04267117	     -6.48978411	     -8.91622155	      5.20512375	     -1.46015091	      4.58714694	    -12.64715010	     26.07543584	     14.01629675	     89.95437384	      0.00000000	      0.00000000	      8.10402169	     12.18065583	    -29.12587651	     14.76029759	     89.95437384	      0.00000000	      0.00000000
      0.01000000	     -4.66004214	     -2.81076339	     -4.02992498	     -1.01980475	      0.88450169	      1.39598249	     32.93354929	     -1.55743530	    -11.17938489	    -48.31804642	     -0.84330900	      1.96340215	    -12.80766759	      1.03503634	     -1.54631738	      0.01144498	      2.63557750	    -16.07509709	     -0.28056337	     17.35827184	      0.82557914	     -6.51679761	     -8.50522196	      5.31137979	     -1.65386728	      4.05376947	    -12.71982589	     26.30705827	     13.75374016	     89.95437384	      0.00000000	      0.00000000	      8.93281721	     12.03892331	    -28.90819462	     15.67020593	     89.95437384	      0.00000000	      0.00000000
      0.02000000	     -4.02332309	     -3.38491732	     -3.87006388	     -1.00997948	      0.88461196	      1.39705414	     32.72314040	     -0.85074643	    -11.36592664	    -45.25250401	     -0.78980519	      1.47770140	    -10.68540780	      1.14621930	     -3.57265184	      0.68532913	      2.95058333	    -14.97462726	     -0.26135655	     17.14990827	      0.20098592	     -6.93977999	     -9.18640788	      6.01977762	     -1.82121852	      3.88658650	    -12.73029327	     25.47848498	     13.36337931	     89.95437384	      0.00000000	      0.00000000	      9.60079622	     11.87986595	    -27.79450249	     17.05180795	     89.95437384	      0.00000000	      0.00000000
      0.03000000	     -3.85253132	     -3.60513845	     -3.68338730	     -1.00049760	      0.88383976	      1.39790049	     33.09818112	     -0.53295205	    -11.40270333	    -42.31311958	     -0.73850325	      0.79653323	     -8.65865294	      1.19068491	     -4.86288733	      0.99710307	      3.28056410	    -14.19400128	     -0.24773206	     16.94756660	     -0.37300049	     -7.36364345	     -9.32747307	      6.39603760	     -2.02168873	      3.60068854	    -12.71441703	     24.67819597	     12.97915746	     89.95437384	      0.00000000	      0.00000000	     10.35433640	     11.63180444	    -26.74453142	     18.16069732	     89.95437384	      0.00000000	      0.00000000
      0.04000000	     -3.69471243	     -3.78488970	     -3.42842536	     -0.99098234	      0.88296822	      1.39863708	     33.36128725	     -0.32248953	    -11.47824408	    -39.29923509	     -0.68590105	     -0.20939768	     -6.64430747	      1.22692019	     -6.05036181	      1.26633948	      3.67726614	    -13.57494554	     -0.23692750	     16.78139962	     -0.83815933	     -7.64750313	     -9.44362123	      6.74134211	     -2.31967682	      3.40103267	    -12.71527636	     24.09828432	     12.54613250	     89.95437384	      0.00000000	      0.00000000	     10.91830910	     11.52853142	    -25.71525169	     19.73178254	     89.95437384	      0.00000000	      0.00000000
      0.05000000	     -3.39182244	     -3.98467318	     -3.07579685	     -0.98123717	      0.88234440	      1.39927811	     33.25638539	     -0.16641075	    -11.64041053	    -36.21641933	     -0.63209576	     -0.88868272	     -4.43752304	      1.16300471	     -7.37305369	      1.57301063	      4.13801410	    -12.97692728	     -0.22649011	     16.46153936	     -1.47974540	     -8.01819769	     -9.71849553	      7.11129012	     -2.65702843	      3.20344673	    -12.69209458	     23.36485763	     12.24441881	     89.95437384	      0.00000000	      0.00000000	     11.55094675	     11.34083880	    -24.56036155	     21.17791451	     89.95437384	      0.00000000	      0.00000000
      0.06000000	     -3.46290366	     -4.09245356	     -2.72698637	     -0.97172317	      0.88116149	      1.39990081	     33.51750619	     -0.04179016	    -11.55926272	    -33.28498860	     -0.58093264	     -1.44389803	     -2.90059688	      1.13947257	     -8.12196641	      1.75929930	      4.24633444	    -12.69116238	     -0.22150257	     16.37962500	     -1.73016826	     -8.13874576	     -9.56895746	      7.41449788	     -3.05466206	      2.93317720	    -12.75954389	     22.84105756	     12.14740101	     89.95437384	      0.00000000	      0.00000000	     12.08496941	     11.29066227	    -23.98645486	     22.81804856	     89.95437384	      0.00000000	      0.00000000
      0.07000000	     -2.96542543	     -4.35855339	     -2.28716817	     -0.96151947	      0.88092108	      1.40060427	     32.90244840	      0.06626557	    -12.02564304	    -30.40780645	     -0.53071634	     -1.43422318	     -1.15515110	      0.86434200	     -9.57413826	      2.14295073	      4.58372699	    -12.28600711	     -0.21443128	     15.91189698	     -2.16274853	     -8.56082378	    -10.04495496	      7.85035413	     -3.43362973	      2.82039133	    -12.70510482	     21.71250255	     11.87364841	     89.95437384	      0.00000000	      0.00000000	     12.50731634	     11.10469911	    -22.38534489	     24.63704831	     89.95437384	      0.00000000	      0.00000000
      0.08000000	     -2.83825454	     -4.56068449	     -1.91013743	     -0.95148261	      0.88012383	      1.40140223	     32.74015822	      0.18454403	    -12.31578454	    -27.96016790	     -0.48799699	     -1.49416355	     -0.52032333	      0.70926946	    -10.30574612	      2.45109089	      4.71971417	    -12.52913411	     -0.21867464	     15.74939536	     -1.97487771	     -8.70761365	    -10.10153995	      8.23288857	     -3.71744106	      2.71810015	    -12.69826178	     21.21587305	     11.49307382	     89.95437384	      0.00000000	      0.00000000	     12.88581233	     11.08061820	    -21.71247690	     26.65237289	     89.95437384	      0.00000000	      0.00000000
      0.09000000	     -2.71837028	     -4.77579259	     -1.43252832	     -0.94153091	      0.87945841	      1.40199577	     32.57004454	      0.25347684	    -12.77447115	    -25.92179793	     -0.45242072	     -1.57599614	     -0.52310117	      0.32391759	    -10.98385727	      2.75779705	      4.35272689	    -12.78080944	     -0.22306721	     15.55819395	     -1.34674123	     -8.96384076	    -10.17093244	      8.66391861	     -4.09102182	      2.60220417	    -12.69219815	     20.17263875	     11.39850008	     89.95437384	      0.00000000	      0.00000000	     13.17650642	     10.99282409	    -20.66011253	     28.75413117	     89.95437384	      0.00000000	      0.00000000
      0.10000000	     -2.91767788	     -4.60733018	     -1.28890244	     -0.93134989	      0.87825029	      1.40282937	     33.04305727	     -0.01988039	    -13.17873761	    -24.89429068	     -0.43448734	     -1.40159391	     -0.57842472	      0.32201165	    -11.21130413	      2.61066321	      4.31250724	    -13.26507437	     -0.23151922	     15.33844160	     -1.19402467	     -8.83775394	     -9.82832266	      8.63915416	     -3.97440997	      2.19720697	    -12.83885084	     20.04313645	     11.47317487	     89.95437384	      0.00000000	      0.00000000	     13.65054197	     10.86020885	    -20.43419633	     30.50112716	     89.95437384	      0.00000000	      0.00000000
      0.11000000	     -2.53421311	     -5.16779486	     -0.59352804	     -0.92071846	      0.87830060	      1.40348879	     32.37333370	      0.37678581	    -13.68995056	    -23.54318711	     -0.41090613	     -1.76696044	     -1.22043618	      0.18989067	    -11.97100540	      3.35541328	      3.55524877	    -13.93190087	     -0.24315754	     15.12906573	     -0.27965777	     -8.85109146	    -10.18369076	      9.45562569	     -4.51106406	      2.11018981	    -12.89901221	     19.22676418	     11.57226961	     89.95437384	      0.00000000	      0.00000000	     13.46663767	     10.99817658	    -19.39653290	     33.55085925	     89.95437384	      0.00000000	      0.00000000
      0.12000000	     -2.54192142	     -5.23838768	     -0.15370376	     -0.90960302	      0.87774097	      1.40427719	     32.31586751	      0.30972965	    -13.94876868	    -23.09873684	     -0.40314901	     -1.65544990	     -1.37888809	      0.15701334	    -12.19361490	      3.58693777	      3.38428484	    -14.83581644	     -0.25893384	     14.66546981	      0.04309522	     -8.67827358	     -9.96214342	      9.70472038	     -4.72504581	      1.76983792	    -13.00989070	     18.94605901	     11.66940475	     89.95437384	      0.00000000	      0.00000000	     13.51603710	     11.06711876	    -19.18826780	     35.89270081	     89.95437384	      0.00000000	      0.00000000
      0.13000000	     -2.19822825	     -5.56986518	      0.41061486	     -0.89800460	      0.87796238	      1.40515370	     31.60296826	      0.60976495	    -13.98000080	    -22.67888635	     -0.39582124	     -1.86571054	     -2.07528432	      0.10878294	    -12.78980849	      4.14152700	      2.94514433	    -15.76957613	     -0.27523103	     14.11267198	      0.42221218	     -8.74129986	    -10.10445078	     10.24764785	     -4.96647882	      1.68647951	    -12.97473632	     18.39220682	     11.36521840	     89.95437384	      0.00000000	      0.00000000	     13.38662769	     11.02369780	    -18.45238039	     38.40489072	     89.95437384	      0.00000000	      0.00000000
      0.14000000	     -2.24907551	     -5.48172290	      0.74504732	     -0.88656670	      0.87764677	      1.40588757	     31.54908014	      0.53129686	    -13.35851096	    -23.10995603	     -0.40334482	     -1.89365095	     -2.01613149	      0.09291037	    -12.78584374	      4.17833647	      2.60369989	    -16.96836730	     -0.29615388	     13.19846645	      0.53189418	     -8.45651038	     -9.81431323	     10.33359409	     -4.87285952	      1.12197720	    -13.18457106	     18.11853365	     11.88162933	     89.95437384	      0.00000000	      0.00000000	     13.46783879	     10.85563534	    -18.18832066	     40.42085446	     89.95437384	      0.00000000	      0.00000000
      0.15000000	     -2.01549001	     -5.60767782	      1.34523834	     -0.87438896	      0.87788912	      1.40677717	     30.77926583	      0.75749269	    -12.53808267	    -23.28543413	     -0.40640749	     -1.91654315	     -2.38719925	      0.13031270	    -13.02923823	      4.60205099	      2.44413274	    -18.26160510	     -0.31872514	     12.35691498	      0.89239924	     -8.28101807	     -9.71980079	     10.62532251	     -5.20036355	      1.17234543	    -13.03768206	     17.97334616	     11.27181406	     89.95437384	      0.00000000	      0.00000000	     13.12725945	     11.09339877	    -18.10477414	     43.05409039	     89.95437384	      0.00000000	      0.00000000
